<svg xmlns="http://www.w3.org/2000/svg" viewBox="0 0 384.69 341.47"><defs><style>.cls-1{fill:#c2c3c8;}.cls-2{fill:#70a63b;}.cls-3{fill:#a1bc31;}.cls-4{fill:#332f2e;}.cls-5{fill:#9bcbee;}.cls-6{fill:#f1e3b4;}.cls-7{fill:#d9a957;}.cls-8{fill:#be2d86;}.cls-9{fill:#e8bb37;}.cls-10{fill:#bb9d6c;}.cls-11{fill:#211915;}.cls-12{fill:#7bbbe8;}.cls-13{fill:#ecedef;}.cls-14{fill:#273a53;}.cls-15{fill:#e2a91f;}.cls-16{fill:#39567d;}.cls-17{fill:#d7d8dc;}.cls-18{opacity:0.4;}.cls-19{fill:#f7f7f8;}</style></defs><g id="Layer_2" data-name="Layer 2"><g id="OBJECTS"><path class="cls-1" d="M213.42,72.81a5,5,0,0,1-1.52-9.69l24.52-7.89A5.66,5.66,0,0,1,239.88,66l-15.24,4.9a.67.67,0,1,1-.41-1.28l15.24-4.91a4.3,4.3,0,0,0-2.64-8.19l-24.52,7.89a3.61,3.61,0,0,0,2.22,6.88l18-5.81a2.92,2.92,0,1,0-1.79-5.56l-11.23,3.61a.67.67,0,1,1-.41-1.28l11.23-3.62A4.27,4.27,0,0,1,233,66.76l-18.05,5.81A5.07,5.07,0,0,1,213.42,72.81Z"/><path class="cls-2" d="M54.59,299.86S45.7,289.17,41.85,284c-9.39-12.65-18.83-25.9-22.26-41.27,11.92,8.17,23,18.51,28.4,31.93C51.21,282.7,54.59,299.86,54.59,299.86Z"/><path class="cls-2" d="M94,326.31c-18.84-4.61-32.77-18.2-43.75-33.51-.46-.65-1.55,0-1.08.63C60.34,309,74.5,322.83,93.65,327.52c.79.19,1.12-1,.34-1.21Z"/><path class="cls-2" d="M57.9,303.72c-2.55-4.24-7.6-7.33-12.31-8.87s-9.66-2.14-14.47-3.32a60.62,60.62,0,0,1-16.41-6.3C23.48,299.42,41.57,307.17,57.9,303.72Z"/><path class="cls-2" d="M80.78,322.19s-11.67-.84-17.89-2.2a66.16,66.16,0,0,1-13.72-4.27,30.46,30.46,0,0,1-11.35-8.62c6.06,2,12.63,1.59,18.82,3C64.45,312,80.78,322.19,80.78,322.19Z"/><path class="cls-2" d="M84.38,324.07s-4.24-10.9-7.38-16.44a66,66,0,0,0-8.14-11.84,30.31,30.31,0,0,0-11.58-8.31c3.66,5.21,5.25,11.6,8.48,17.09C69.82,311.48,84.38,324.07,84.38,324.07Z"/><path class="cls-2" d="M109.86,165.34c1.48-7.57-1.14-16.42-5-23.11s-9-12.56-13.3-18.94A94.56,94.56,0,0,1,79.15,98.87C74.5,124.46,87.36,152.3,109.86,165.34Z"/><path class="cls-2" d="M257,104.15s4.7-21.15,6.33-31.09c4-24.22,7.59-49.32,1.36-73.06C254,19.83,246,42.08,248.16,64.5,249.44,78,257,104.15,257,104.15Z"/><path class="cls-2" d="M225.18,182c1.44-8.75,4-17,9.41-24.12,4.13-5.46,8.8-10.32,12-16.43,4.57-8.67,6.72-18.37,8.28-28a258.13,258.13,0,0,0,3.39-28.53c0-.8-1.21-.8-1.25,0a255.83,255.83,0,0,1-3.64,29.95c-1.68,9.91-4.13,20-9.4,28.63-3.3,5.44-7.82,9.9-11.48,15.06-4.88,6.88-7.19,14.83-8.55,23.08-.12.78,1.08,1.12,1.21.33Z"/><path class="cls-2" d="M255.88,105.71c-.24-7.71,3.77-16,8.63-22s10.85-11,16.16-16.56c6.35-6.71,12-13.88,16.18-22.11C297.35,71,280.18,96.45,255.88,105.71Z"/><path class="cls-2" d="M241.49,149.21s14.59-10.94,21.59-18a103.27,103.27,0,0,0,14.35-17.18A47.32,47.32,0,0,0,285,93.19c-6.29,7.67-15.21,12.74-22.09,19.89C254.29,122.08,241.49,149.21,241.49,149.21Z"/><path class="cls-2" d="M244,145.54s5.28-18.11,5.51-28c.17-7.47-3.5-21.93-15.26-36.15.74,9.9.48,13.28.42,23.21C234.6,117.06,244,145.54,244,145.54Z"/><path class="cls-3" d="M128.64,100.15s-7.9-10.78-11.29-16c-8.26-12.7-16.53-26-18.91-40.95,11,8.56,21,19.14,25.36,32.35C126.42,83.49,128.64,100.15,128.64,100.15Z"/><path class="cls-2" d="M262.66,275.41c1.26-7.62,6.8-15,12.73-19.92s12.78-8.65,19.07-13.11c7.53-5.35,14.47-11.28,20.17-18.55C310.06,249.43,288.29,271,262.66,275.41Z"/><path class="cls-3" d="M242.68,336.93c1-5.85,5.23-11.52,9.79-15.31s9.82-6.65,14.66-10.08a72.73,72.73,0,0,0,15.5-14.26C279.12,317,262.38,333.57,242.68,336.93Z"/><path class="cls-3" d="M95.2,289.44s-5.38-12.24-7.56-18.06c-5.31-14.19-10.51-28.95-9.58-44.07C86.9,238,94.41,250.55,95.8,264.38,96.64,272.69,95.2,289.44,95.2,289.44Z"/><path class="cls-3" d="M298.78,166.71s14-27.61,21.19-40.07c17.56-30.36,36.31-61.35,64.72-81.92-6.19,31.58-17.52,63.39-40.21,86.22C330.86,144.65,298.78,166.71,298.78,166.71Z"/><path class="cls-3" d="M261.61,262.84c.12-43.09,23.09-80.95,50.8-112.29.54-.6-.35-1.49-.88-.89-27.93,31.59-51,69.76-51.17,113.18a.63.63,0,0,0,1.25,0Z"/><path class="cls-3" d="M293.11,173.23c7.92-7.67,12.07-20.18,13-31.16S305.9,120,306,109c.15-13.19,1.47-26.17,5.38-38.78C285.05,96.42,277.39,139.58,293.11,173.23Z"/><path class="cls-3" d="M264.65,232.17s-4.1-25.72-4.29-39.89c-.15-10.69.18-21.44,2.34-31.9s6.23-20.68,12.95-29c-1.18,14.12,2.94,28.19,2.89,42.37C278.49,191.62,264.65,232.17,264.65,232.17Z"/><path class="cls-3" d="M252.81,216.59s25.23-6.46,38.31-11.92c9.86-4.11,19.6-8.68,28.34-14.82s16.5-13.93,21.46-23.4c-12.5,6.7-27,8.51-40,14.18C284.53,187.78,252.81,216.59,252.81,216.59Z"/><path class="cls-3" d="M50.57,222.77s-8.71-19.84-12.24-29.27c-8.61-23-17-46.9-15.52-71.41,14.32,17.39,26.48,37.66,28.74,60.07C52.91,195.62,50.57,222.77,50.57,222.77Z"/><path class="cls-3" d="M99,295.12C96.11,287.3,92.3,280,86.47,273.9c-4.91-5.11-10.71-9.25-15.39-14.6C63.93,251.11,59.36,241.11,55.6,231a253.7,253.7,0,0,1-8.81-27.16.63.63,0,0,0-1.21.33,256,256,0,0,0,8.82,27.16c3.42,9.19,7.46,18.27,13.51,26.06,4.36,5.62,9.82,10,15,14.76,7,6.52,11.59,14.35,14.94,23.29.28.75,1.49.42,1.2-.33Z"/><path class="cls-3" d="M52,224.08c-1.26-7.61-6.8-15-12.73-19.92s-12.78-8.64-19.07-13.1C12.64,185.71,5.7,179.78,0,172.51,4.57,198.11,26.34,219.72,52,224.08Z"/><path class="cls-3" d="M74.54,264s-16.43-7.9-24.67-13.44a103.07,103.07,0,0,1-17.41-14.06,47.29,47.29,0,0,1-11.52-19c7.66,6.31,17.39,9.54,25.53,15.22C56.72,239.83,74.54,264,74.54,264Z"/><path class="cls-3" d="M71.35,260.84s-8.69-16.73-10.84-26.42c-1.62-7.3-.83-22.19,7.95-38.42,1.2,9.85,2.11,13.12,4.09,22.84C75.06,231.08,71.35,260.84,71.35,260.84Z"/><path class="cls-4" d="M254.1,179.8h-4.62V141.71h4.62s7.61,14.33,7.61,19.09S254.1,179.8,254.1,179.8Z"/><path class="cls-5" d="M253.53,183.3a3.5,3.5,0,0,1-2.44-6,23.45,23.45,0,0,0,.5-33.13,3.5,3.5,0,0,1,5-4.88,30.47,30.47,0,0,1-.66,43A3.49,3.49,0,0,1,253.53,183.3Z"/><rect class="cls-6" x="85.02" y="141.71" width="166.91" height="38.19"/><path class="cls-5" d="M254.11,145.17H79.32a3.46,3.46,0,1,1,0-6.92H254.11a3.46,3.46,0,0,1,0,6.92Z"/><path class="cls-5" d="M253.53,183.36H79.32a3.47,3.47,0,1,1,0-6.93H253.53a3.47,3.47,0,0,1,0,6.93Z"/><path class="cls-7" d="M224.58,151.22H90.21a.5.5,0,0,1,0-1H224.58a.5.5,0,0,1,0,1Z"/><path class="cls-7" d="M227.27,157.41H92.91a.5.5,0,0,1-.5-.5.5.5,0,0,1,.5-.5H227.27a.5.5,0,0,1,.5.5A.5.5,0,0,1,227.27,157.41Z"/><path class="cls-7" d="M246.2,163.87H111.84a.5.5,0,0,1-.5-.5.5.5,0,0,1,.5-.5H246.2a.5.5,0,0,1,.5.5A.5.5,0,0,1,246.2,163.87Z"/><path class="cls-4" d="M86.94,297.28h4.61v38.09H86.94S79.32,321,79.32,316.28,86.94,297.28,86.94,297.28Z"/><rect class="cls-6" x="89.1" y="297.18" width="166.91" height="38.19"/><path class="cls-5" d="M86.92,338.87a3.49,3.49,0,0,1-2.51-1.07,30.46,30.46,0,0,1,.66-43,3.5,3.5,0,0,1,4.87,5,23.45,23.45,0,0,0-.5,33.13,3.51,3.51,0,0,1-2.52,5.94Z"/><path class="cls-5" d="M261.71,338.83H86.92a3.47,3.47,0,0,1,0-6.93H261.71a3.47,3.47,0,1,1,0,6.93Z"/><path class="cls-5" d="M261.71,300.65H87.51a3.47,3.47,0,1,1,0-6.93h174.2a3.47,3.47,0,1,1,0,6.93Z"/><path class="cls-7" d="M250.82,326.86H116.45a.5.5,0,1,1,0-1H250.82a.5.5,0,1,1,0,1Z"/><path class="cls-7" d="M240,315H105.63a.5.5,0,0,1-.5-.5.5.5,0,0,1,.5-.5H240a.5.5,0,0,1,.5.5A.5.5,0,0,1,240,315Z"/><path class="cls-7" d="M229.19,309.21H94.83a.5.5,0,0,1-.5-.5.5.5,0,0,1,.5-.5H229.19a.5.5,0,0,1,.5.5A.5.5,0,0,1,229.19,309.21Z"/><path class="cls-8" d="M277.91,293.85H101.21a5.5,5.5,0,1,1,0-11h176.7a5.5,5.5,0,0,1,0,11Z"/><path class="cls-4" d="M292.76,234.41H287V186.72h5.78s9.54,17.94,9.54,23.91S292.76,234.41,292.76,234.41Z"/><path class="cls-8" d="M292.05,237.91a3.5,3.5,0,0,1-2.44-6,30.22,30.22,0,0,0,.66-42.75,3.5,3.5,0,1,1,5-4.87,37.21,37.21,0,0,1-.8,52.64A3.49,3.49,0,0,1,292.05,237.91Z"/><rect class="cls-6" x="81.04" y="186.72" width="209.3" height="47.82"/><path class="cls-8" d="M292.78,190.22H73.91a3.5,3.5,0,0,1,0-7H292.78a3.5,3.5,0,0,1,0,7Z"/><path class="cls-8" d="M292.05,238H73.91a3.5,3.5,0,0,1,0-7H292.05a3.5,3.5,0,0,1,0,7Z"/><path class="cls-7" d="M255.8,198.5H87.55a.5.5,0,0,1-.5-.5.5.5,0,0,1,.5-.5H255.8a.5.5,0,0,1,.5.5A.5.5,0,0,1,255.8,198.5Z"/><path class="cls-7" d="M264.47,218.33H96.21a.51.51,0,0,1-.5-.5.5.5,0,0,1,.5-.5H264.47a.5.5,0,0,1,.5.5A.51.51,0,0,1,264.47,218.33Z"/><path class="cls-7" d="M262.05,224.69H93.79a.5.5,0,0,1,0-1H262.05a.5.5,0,0,1,0,1Z"/><path class="cls-4" d="M270.29,279.42h-4.61V241.33h4.61s7.62,14.33,7.62,19.09S270.29,279.42,270.29,279.42Z"/><path class="cls-9" d="M269.72,282.92a3.51,3.51,0,0,1-2.44-6,23.44,23.44,0,0,0,.51-33.13,3.5,3.5,0,0,1,5-4.88,30.48,30.48,0,0,1-.66,43A3.49,3.49,0,0,1,269.72,282.92Z"/><rect class="cls-6" x="101.21" y="241.33" width="166.91" height="38.19"/><path class="cls-9" d="M270.3,244.83H95.51a3.5,3.5,0,0,1,0-7H270.3a3.5,3.5,0,0,1,0,7Z"/><path class="cls-9" d="M269.72,283H95.51a3.5,3.5,0,1,1,0-7H269.72a3.5,3.5,0,0,1,0,7Z"/><path class="cls-7" d="M240.77,250.84H106.41a.5.5,0,0,1,0-1H240.77a.5.5,0,0,1,0,1Z"/><path class="cls-7" d="M243.47,257H109.1a.5.5,0,0,1-.5-.5.51.51,0,0,1,.5-.5H243.47a.51.51,0,0,1,.5.5A.5.5,0,0,1,243.47,257Z"/><path class="cls-7" d="M262.4,263.49H128a.5.5,0,0,1-.5-.5.51.51,0,0,1,.5-.5H262.4a.5.5,0,0,1,.5.5A.5.5,0,0,1,262.4,263.49Z"/><path class="cls-2" d="M170.54,264.52l-7.81-10-7.8,10V238.05a.18.18,0,0,1,.16-.18,61.67,61.67,0,0,1,7.64-.42,54.44,54.44,0,0,1,7.65.42.18.18,0,0,1,.16.18Z"/><polygon class="cls-10" points="67.36 166.92 59.42 190.84 70.99 191.87 67.36 166.92"/><polygon class="cls-11" points="67.36 166.92 65.33 173.04 68.29 173.3 67.36 166.92"/><path class="cls-5" d="M71,192.09a1.94,1.94,0,0,0-3.86-.35,1.93,1.93,0,1,0-3.85-.34,1.94,1.94,0,0,0-3.86-.35L47.17,330.26h0l-.46,5.11a3.54,3.54,0,0,0,3.2,3.84l4.54.4a3.52,3.52,0,0,0,3.83-3.2l.17-1.89h0Z"/><path class="cls-12" d="M71,192.09a1.94,1.94,0,0,0-3.86-.35c.09-1-11.91,132.07-13.26,147.82l.58.05a3.52,3.52,0,0,0,3.83-3.2l.17-1.89h0Z"/><path class="cls-4" d="M49.38,305.27l-2.14,25-.46,5.12A3.53,3.53,0,0,0,50,339.21l4.53.41a3.53,3.53,0,0,0,3.83-3.2l.17-1.89,2.41-28.28Z"/><polygon class="cls-13" points="49.36 305.27 49.08 308.39 60.66 309.37 60.95 306.25 49.36 305.27"/><polygon class="cls-4" points="57.73 286.14 56.16 285.99 55.18 297.57 56.75 297.73 57.73 286.14"/><polygon class="cls-13" points="55.44 313.25 53.87 313.11 53.38 318.9 54.95 319.04 55.44 313.25"/><path class="cls-3" d="M93.54,281.31c-5.64,2.63-13.07,2.3-19.05.61s-11.57-4.56-17.4-6.71a76.27,76.27,0,0,0-21.53-5C54.67,261.62,79,266.25,93.54,281.31Z"/><path class="cls-1" d="M59.13,168.36a4.84,4.84,0,0,1-2.07-.46,4.93,4.93,0,0,1-2.59-2.77L45.5,141a5.64,5.64,0,0,1,7.65-7.1A5.6,5.6,0,0,1,56.09,137l5.58,15a.67.67,0,1,1-1.26.47l-5.58-15a4.3,4.3,0,0,0-8.07,3l9,24.15a3.62,3.62,0,1,0,6.78-2.52L55.9,144.37a2.92,2.92,0,1,0-5.47,2l4.11,11.07a.67.67,0,0,1-.4.86.66.66,0,0,1-.86-.4l-4.12-11.06a4.27,4.27,0,1,1,8-3l6.6,17.77a5,5,0,0,1-2.92,6.38A4.88,4.88,0,0,1,59.13,168.36Z"/><path class="cls-1" d="M297.83,309.86a5.68,5.68,0,0,1-5.54-4.54l-3.14-15.7a.66.66,0,0,1,.52-.79.67.67,0,0,1,.8.52l3.14,15.7a4.29,4.29,0,0,0,1.84,2.74,4.31,4.31,0,0,0,6.61-4.43L297,278.1a3.61,3.61,0,0,0-7.08,1.42l3.73,18.59a2.92,2.92,0,1,0,5.72-1.14L297,285.4a.69.69,0,0,1,.53-.8.68.68,0,0,1,.79.53l2.32,11.57a4.26,4.26,0,0,1-8.36,1.68l-3.73-18.59a5,5,0,0,1,3.88-5.84,5,5,0,0,1,5.84,3.89l5.07,25.25a5.67,5.67,0,0,1-4.43,6.66A6.07,6.07,0,0,1,297.83,309.86Z"/><polygon class="cls-14" points="260.45 88.4 233.45 93.81 119.35 100.75 86.64 88.27 176.62 58.76 260.45 88.4"/><path class="cls-9" d="M261.12,84,178,56.66l-.15-.06-.24-.1-.21,0-.23,0h-.46a1.17,1.17,0,0,0-.26,0l-.15,0L86,83.66a2.35,2.35,0,0,0,.62,4.61,2.72,2.72,0,0,0,.63-.08l89.35-26.94L259,88.14A2.35,2.35,0,0,0,261.12,84Z"/><polygon class="cls-15" points="163.21 66.04 163.21 61.13 159.69 62.39 159.69 67.3 163.21 66.04"/><path class="cls-16" d="M233.45,137s-34.15,3.69-56.83,3.69c-26.68,0-57.27-3.69-57.27-3.69V88.66a184.16,184.16,0,0,1,57.27-9.42c29.95,0,56.83,9.42,56.83,9.42Z"/><path class="cls-14" d="M146.14,139.5c-16.55-1.09-26.79-2.48-26.79-2.48V88.66a145.39,145.39,0,0,1,27.44-8.27Z"/><path class="cls-15" d="M176.72,141.53c-37,0-52.95-2.61-57.37-3.51v-4.16c2.21.5,17.57,3.61,57.37,3.61,20.76,0,51.44-3.1,56.73-3.65v4.08C227.07,138.56,197.17,141.53,176.72,141.53Z"/><path class="cls-9" d="M176.62,142.71c-43.12,0-57.21-3.6-57.78-3.75a2,2,0,1,1,1-3.87c.13,0,14.35,3.62,56.76,3.62,22.31,0,56.28-3.64,56.62-3.67a2,2,0,1,1,.43,4C233.32,139.05,199.15,142.71,176.62,142.71Z"/><path class="cls-9" d="M162.64,84.42a11.7,11.7,0,0,1-.74-2.82h0V61.79a1.76,1.76,0,1,0-3.52,0V81.6s0,.06,0,.08a29.1,29.1,0,0,1-.61,3.62,27.15,27.15,0,0,0-.65,4,.88.88,0,1,0,1.76,0,25.57,25.57,0,0,1,.56-3.43v0c.09,1.72.19,3.49.19,4.25a.88.88,0,0,0,1.76,0c0-.8-.09-2.52-.19-4.35v-.24a8.9,8.9,0,0,1,.54,2.21.88.88,0,0,0,1.76,0A12,12,0,0,0,162.64,84.42Z"/><path class="cls-14" d="M176.4,118.23a.5.5,0,0,1-.5-.5V102.54a.5.5,0,1,1,1,0v15.19A.5.5,0,0,1,176.4,118.23Z"/><path class="cls-9" d="M49.7,99.69c-10.86,0-22.56-2-22.56-6.5s11.7-6.51,22.56-6.51,22.57,2,22.57,6.51S60.57,99.69,49.7,99.69ZM49.7,89c-13.11,0-20.27,2.79-20.27,4.22S36.59,97.4,49.7,97.4,70,94.61,70,93.19,62.82,89,49.7,89Z"/><path class="cls-9" d="M59.64,113.07c-1.67,0-3.84-1.36-6.47-4.08a66.77,66.77,0,0,1-9.1-12.55C38.64,87,34.55,75.88,38.42,73.65c1.79-1,4.42.22,7.81,3.73a65.89,65.89,0,0,1,9.1,12.55c5.44,9.42,9.52,20.56,5.65,22.79A2.56,2.56,0,0,1,59.64,113.07ZM39.77,75.59a.46.46,0,0,0-.2,0c-1.24.71-.07,8.3,6.49,19.66a63.63,63.63,0,0,0,8.76,12.11c3.16,3.27,4.72,3.51,5,3.34h0c1.24-.71.07-8.3-6.49-19.66A64.39,64.39,0,0,0,44.59,79C41.88,76.17,40.34,75.59,39.77,75.59Z"/><path class="cls-9" d="M39.76,113.07a2.58,2.58,0,0,1-1.34-.35h0c-1.79-1-2-3.93-.67-8.63a67,67,0,0,1,6.32-14.16c5.44-9.41,13-18.52,16.91-16.28S60.77,87,55.33,96.44A65.89,65.89,0,0,1,46.23,109C43.61,111.71,41.44,113.07,39.76,113.07ZM59.54,75.56c-1.71,0-7.35,4.89-13.48,15.52A64.07,64.07,0,0,0,40,104.72c-1.25,4.37-.68,5.85-.38,6h0c.3.17,1.86-.07,5-3.34a64.06,64.06,0,0,0,8.76-12.11c6.56-11.36,7.73-19,6.49-19.66A.56.56,0,0,0,59.54,75.56Z"/><circle class="cls-8" cx="49.7" cy="93.19" r="2.05"/><path class="cls-5" d="M360.12,186.63a16.87,16.87,0,1,0-7.57,32,17,17,0,0,0,5.34-.87,16.87,16.87,0,0,0,2.23-31.09Zm5.94,20.56-2.66-1.33a16.89,16.89,0,0,0,1.29-5.34l2.44,1.23A14.44,14.44,0,0,1,366.06,207.19ZM356.61,211l-5.93-3,2.4-4.78,7.24,3.63A14.26,14.26,0,0,1,356.61,211ZM338,201.67a14.38,14.38,0,0,1,1.08-5.44l2.66,1.33a16.89,16.89,0,0,0-1.29,5.34Zm5.79-3.08,7.25,3.63-2.4,4.78-5.93-3A14.15,14.15,0,0,1,343.78,198.59Zm4.7-6.19,6,3-2.4,4.78-7.25-3.63A14.55,14.55,0,0,1,348.48,192.4Zm11-1.93a16,16,0,0,1,2.73,6.25l-4.69-2.35Zm-4,2.88L350.79,191a16,16,0,0,1,6.64-1.55Zm-7.87,15.7-1.95,3.89a16,16,0,0,1-2.69-6.22Zm2,1,4.64,2.33A16.17,16.17,0,0,1,347.7,214Zm4.45-8.87,2.4-4.78,6,3a14.22,14.22,0,0,1-1.12,5.42Zm12.78-2.14L364.66,198a17.39,17.39,0,0,0-2.09-6.84A14.61,14.61,0,0,1,366.88,199.06Zm-14.29-11.93a14.49,14.49,0,0,1,2.44.23,17.42,17.42,0,0,0-6.69,2.41l-2.23-1.12A14.62,14.62,0,0,1,352.59,187.13Zm-8.78,2.93,2.45,1.23a16.52,16.52,0,0,0-3.5,4.22l-2.68-1.34A14.57,14.57,0,0,1,343.81,190.06Zm-5.08,16.25a13.7,13.7,0,0,1-.49-2l2.23,1.12a17.45,17.45,0,0,0,2.11,6.87A14.51,14.51,0,0,1,338.73,206.31Zm11.32,9.75a17.37,17.37,0,0,0,6.75-2.41l2.21,1.11A14.6,14.6,0,0,1,350.05,216.06Zm11.26-2.71-2.44-1.22a16.77,16.77,0,0,0,3.51-4.22l2.66,1.33A14.44,14.44,0,0,1,361.31,213.35Z"/><path class="cls-17" d="M323.59,325.07l4.62-.49a.56.56,0,0,1,.63.61l-1,12.87a.57.57,0,0,1-1.12.12L323.1,325.8A.57.57,0,0,1,323.59,325.07Z"/><path class="cls-4" d="M311.65,192a1.87,1.87,0,0,1-2.06-1.65l-1.57-14a1.88,1.88,0,0,1,1.66-2.07h0a1.89,1.89,0,0,1,2.06,1.66l1.56,14a1.86,1.86,0,0,1-1.65,2.07Z"/><path class="cls-17" d="M326,325.23h0a7.08,7.08,0,0,1-7.78-6.25L303.61,185c-.42-3.86,13.61-5.39,14-1.53l14.58,134A7.08,7.08,0,0,1,326,325.23Z"/><path class="cls-13" d="M326,325.23h0L310.31,181.31c3.51-.39,7.12.2,7.33,2.13l14.58,134A7.08,7.08,0,0,1,326,325.23Z"/><path class="cls-4" d="M309.42,238.28a1.35,1.35,0,0,1-.29-2.68l14-1.57h0a1.35,1.35,0,0,1,.29,2.68l-14,1.57Z"/><path class="cls-4" d="M324.65,219.79a1.34,1.34,0,0,1-1.48-1.18l-2-18.1a1.35,1.35,0,0,1,1.19-1.49h0a1.35,1.35,0,0,1,1.48,1.19l2,18.09a1.33,1.33,0,0,1-1.18,1.49Z"/><path class="cls-4" d="M318.65,192.72a1.35,1.35,0,0,1-.3-2.68l5.48-.62h0a1.34,1.34,0,1,1,.29,2.67l-5.47.63Z"/><path class="cls-4" d="M304.69,194.9a2,2,0,1,1-.44-4l14-1.54h0a2,2,0,0,1,.43,4l-14,1.53Z"/><path class="cls-4" d="M322.61,201.7a1.33,1.33,0,0,1-.82-.17,1.35,1.35,0,0,1-.49-1.84l2.14-3.7a1.33,1.33,0,0,1,1.84-.49,1.35,1.35,0,0,1,.49,1.84l-2.14,3.7A1.34,1.34,0,0,1,322.61,201.7Z"/><path class="cls-4" d="M324.75,198a1.34,1.34,0,0,1-1.48-1.2l-.63-5.9a1.35,1.35,0,0,1,2.68-.29l.62,5.91A1.34,1.34,0,0,1,324.75,198Z"/><path class="cls-5" d="M330.37,313.13l-11.29,1.2a1.47,1.47,0,0,0-1.19,1.77c1.87,17.65,7.56,17.42,7.56,17.42l2.72-.29s5.61-1,3.73-18.61A1.47,1.47,0,0,0,330.37,313.13Z"/><path class="cls-4" d="M317.61,315.47a.94.94,0,0,1-.2-1.87l14-1.56h0a.94.94,0,0,1,.21,1.87l-14,1.56Z"/><path class="cls-4" d="M327.36,338.56a.46.46,0,0,1-.34-.1.45.45,0,0,1-.07-.66.49.49,0,0,1,.65-.07.75.75,0,0,1,.12.14.41.41,0,0,1,0,.18.45.45,0,0,1-.1.35.53.53,0,0,1-.14.11A.48.48,0,0,1,327.36,338.56Z"/><polygon class="cls-10" points="301.86 335.69 277.35 329.85 277.32 341.46 301.86 335.69"/><polygon class="cls-11" points="301.86 335.69 295.59 334.2 295.59 337.17 301.86 335.69"/><path class="cls-2" d="M277.1,341.46a1.94,1.94,0,0,0,0-3.87,1.94,1.94,0,0,0,0-3.87,1.94,1.94,0,0,0,0-3.87l-159.74-.11v0h-5.14a3.53,3.53,0,0,0-3.54,3.53v4.54a3.54,3.54,0,0,0,3.52,3.55h1.9v0Z"/><path class="cls-3" d="M277.1,341.46a1.94,1.94,0,0,0,0-3.87c1,0-152.61-.41-168.41-.39v.57a3.54,3.54,0,0,0,3.52,3.55h1.9v0Z"/><path class="cls-4" d="M142.47,329.77l-25.08,0-5.14,0a3.54,3.54,0,0,0-3.54,3.53v4.55a3.53,3.53,0,0,0,3.52,3.54h1.9l28.38-.05Z"/><polygon class="cls-13" points="142.47 329.75 139.34 329.74 139.37 341.36 142.5 341.38 142.47 329.75"/><polygon class="cls-4" points="162.25 336.43 162.27 334.85 150.65 334.88 150.63 336.46 162.25 336.43"/><polygon class="cls-13" points="135.05 336.5 135.06 334.92 129.24 334.94 129.24 336.51 135.05 336.5"/><g class="cls-18"><circle class="cls-5" cx="227.85" cy="64.2" r="26.63"/></g><path class="cls-11" d="M213.25,89.84a29.51,29.51,0,1,1,22.41,2.82A29.41,29.41,0,0,1,213.25,89.84Zm26.33-46.26a23.72,23.72,0,1,0,11.16,14.33A23.59,23.59,0,0,0,239.58,43.58Z"/><path class="cls-19" d="M211.83,53.56l-.11-.06a1.46,1.46,0,0,1-.37-2,29,29,0,0,1,4.16-4.75,1.45,1.45,0,1,1,2,2.14,25.27,25.27,0,0,0-3.73,4.26A1.44,1.44,0,0,1,211.83,53.56Z"/><path class="cls-19" d="M208.49,60.15a1.45,1.45,0,0,1-.65-1.72,27.77,27.77,0,0,1,1.38-3.33,1.45,1.45,0,0,1,1.94-.66,1.48,1.48,0,0,1,.66,1.94,25,25,0,0,0-1.24,3,1.44,1.44,0,0,1-1.84.9A1.12,1.12,0,0,1,208.49,60.15Z"/><path class="cls-11" d="M245,137.75a4.35,4.35,0,0,1-2-2.63l-11.87-42.7a4.34,4.34,0,0,1,8.37-2.3l11.87,42.71a4.35,4.35,0,0,1-6.34,4.92Z"/><path class="cls-9" d="M231.17,98.49a2.21,2.21,0,0,1-1-1.31,2.17,2.17,0,0,1,1.52-2.67l8.36-2.3a2.17,2.17,0,0,1,1.15,4.19l-8.37,2.29A2.16,2.16,0,0,1,231.17,98.49Z"/><path class="cls-9" d="M176.4,30.92a1.5,1.5,0,0,1-1.5-1.5v-12a1.5,1.5,0,0,1,3,0v12A1.5,1.5,0,0,1,176.4,30.92Z"/><path class="cls-9" d="M151.47,35.55a1.53,1.53,0,0,1-1.06-.44l-8.49-8.5A1.5,1.5,0,1,1,144,24.49l8.49,8.5a1.5,1.5,0,0,1-1.06,2.56Z"/><path class="cls-9" d="M201.32,35.55a1.53,1.53,0,0,1-1.06-.44,1.51,1.51,0,0,1,0-2.12l8.5-8.5a1.5,1.5,0,1,1,2.12,2.12l-8.5,8.5A1.49,1.49,0,0,1,201.32,35.55Z"/></g></g></svg>